{"title":"If I Were You 2012 WEBRip XViD juggs","uid":8176839,"size":750589525,"categoryP":"video","categoryS":"movies","magnet":"?xt=urn:btih:6644229cd3a4036723a3886adeff0b74bb4e901d&amp;dn=If+I+Were+You+2012+WEBRip+XViD+juggs&amp;tr=udp%3A%2F%2Ftracker.openbittorrent.com%3A80&amp;tr=udp%3A%2F%2Fopen.demonii.com%3A1337&amp;tr=udp%3A%2F%2Ftracker.coppersurfer.tk%3A6969&amp;tr=udp%3A%2F%2Fexodus.desync.com%3A6969","seeders":9,"leechers":4,"uploader":"juggs99","files":3,"time":1361547698,"description":" &lt;a href=&quot;http://img138.imageshack.us/img138/3171/112ww.png&quot; rel=&quot;nofollow&quot; target=&quot;_NEW&quot;&gt;http://img138.imageshack.us/img138/3171/112ww.png&lt;/a&gt;\n\n\nSource : CtrlHD\n\nFormat : AVI\nFormat/Info : Audio Video Interleave\nFile size : 704 MiB\nDuration : 1h 54mn\nOverall bit rate : 856 Kbps\nWriting library : VirtualDub build 32842/release\n\nVideo\nID : 0\nFormat : MPEG-4 Visual\nFormat profile : Advanced Simple@L5\nFormat settings, BVOP : 4\nFormat settings, QPel : No\nFormat settings, GMC : No warppoints\nFormat settings, Matrix : Default (H.263)\nMuxing mode : Packed bitstream\nCodec ID : XVID\nCodec ID/Hint : XviD\nDuration : 1h 54mn\nBit rate : 718 Kbps\nWidth : 640 pixels\nHeight : 352 pixels\nDisplay aspect ratio : 16:9\nFrame rate : 23.976 fps\nColor space : YUV\nChroma subsampling : 4:2:0\nBit depth : 8 bits\nScan type : Progressive\nCompression mode : Lossy\nBits/(Pixel*Frame) : 0.133\nStream size : 591 MiB (84%)\nWriting library : XviD 64\n\nAudio\nID : 1\nFormat : MPEG Audio\nFormat version : Version 1\nFormat profile : Layer 3\nCodec ID : 55\nCodec ID/Hint : MP3\nDuration : 1h 54mn\nBit rate mode : Constant\nBit rate : 128 Kbps\nChannel(s) : 2 channels\nSampling rate : 44.1 KHz\nCompression mode : Lossy\nStream size : 105 MiB (15%)\nAlignment : Split accross interleaves\nInterleave, duration : 42 ms (1.00 video frame)\nInterleave, preload duration : 500 ms\nWriting library : LAME3.99r\nEncoding settings : -m s -V 4 -q 3 -lowpass 17 -b 128\n\n\nPlot\nWhen a woman tries to outwit her husband's sexy young mistress, the unexpected consequences include starring as King Lear in a very amateur production - with the mistress, an aspiring actress, playing The Fool.\n\n &lt;a href=&quot;\nhttp://www.shotpix.com/images/71608076212945571110.png&quot; rel=&quot;nofollow&quot; target=&quot;_NEW&quot;&gt;\nhttp://www.shotpix.com/images/71608076212945571110.png&lt;/a&gt; &lt;a href=&quot;\nhttp://www.shotpix.com/images/77551421830677271800.png&quot; rel=&quot;nofollow&quot; target=&quot;_NEW&quot;&gt;\nhttp://www.shotpix.com/images/77551421830677271800.png&lt;/a&gt; &lt;a href=&quot;\nhttp://www.shotpix.com/images/33678807038424486802.png&quot; rel=&quot;nofollow&quot; target=&quot;_NEW&quot;&gt;\nhttp://www.shotpix.com/images/33678807038424486802.png&lt;/a&gt;","torrent":{"xt":"urn:btih:6644229cd3a4036723a3886adeff0b74bb4e901d","amp;dn":"If+I+Were+You+2012+WEBRip+XViD+juggs","amp;tr":["udp%3A%2F%2Ftracker.openbittorrent.com%3A80","udp%3A%2F%2Fopen.demonii.com%3A1337","udp%3A%2F%2Ftracker.coppersurfer.tk%3A6969","udp%3A%2F%2Fexodus.desync.com%3A6969"],"infoHash":"6644229cd3a4036723a3886adeff0b74bb4e901d","infoHashBuffer":{"type":"Buffer","data":[102,68,34,156,211,164,3,103,35,163,136,106,222,255,11,116,187,78,144,29]},"announce":[],"urlList":[]}}